<?xml version="1.0" encoding="UTF-8" standalone="no"?>
<!-- Created with Inkscape (http://www.inkscape.org/) -->

<svg
   width="117.65603mm"
   height="42.285976mm"
   viewBox="0 0 117.65603 42.285976"
   version="1.1"
   id="svg1"
   xml:space="preserve"
   sodipodi:docname="ID.svg"
   inkscape:version="1.4.2 (ebf0e94, 2025-05-08)"
   xmlns:inkscape="http://www.inkscape.org/namespaces/inkscape"
   xmlns:sodipodi="http://sodipodi.sourceforge.net/DTD/sodipodi-0.dtd"
   xmlns:xlink="http://www.w3.org/1999/xlink"
   xmlns="http://www.w3.org/2000/svg"
   xmlns:svg="http://www.w3.org/2000/svg"><sodipodi:namedview
     id="namedview1"
     pagecolor="#ffffff"
     bordercolor="#666666"
     borderopacity="1.0"
     inkscape:showpageshadow="2"
     inkscape:pageopacity="0.0"
     inkscape:pagecheckerboard="0"
     inkscape:deskcolor="#d1d1d1"
     inkscape:document-units="mm"
     showguides="true"
     inkscape:zoom="0.71891835"
     inkscape:cx="-194.737"
     inkscape:cy="540.39516"
     inkscape:window-width="2560"
     inkscape:window-height="1009"
     inkscape:window-x="-8"
     inkscape:window-y="-8"
     inkscape:window-maximized="1"
     inkscape:current-layer="g6"><inkscape:page
       x="0"
       y="0"
       width="117.65603"
       height="42.285976"
       id="page2"
       margin="0"
       bleed="0" /></sodipodi:namedview><defs
     id="defs1"><linearGradient
       id="linearGradient9"
       x1="0"
       y1="0"
       x2="1"
       y2="1"><stop
         offset="0"
         stop-color="#97ddd5"
         stop-opacity="1"
         id="stop8"
         style="stop-color:#bababa;stop-opacity:1;" /><stop
         offset="1"
         stop-color="#1fbdaa"
         stop-opacity="0.4"
         id="stop9"
         style="stop-color:#6e6e6e;stop-opacity:0.40000001;" /></linearGradient><linearGradient
       id="linearGradient7"
       x1="0"
       y1="0"
       x2="1"
       y2="1"><stop
         offset="0"
         stop-color="#97ddd5"
         stop-opacity="1"
         id="stop6"
         style="stop-color:#bababa;stop-opacity:1;" /><stop
         offset="1"
         stop-color="#1fbdaa"
         stop-opacity="0.4"
         id="stop7"
         style="stop-color:#6e6e6e;stop-opacity:0.40000001;" /></linearGradient><linearGradient
       id="bg-ad7a3fe19d73"
       x1="0"
       y1="0"
       x2="1"
       y2="1"><stop
         offset="0"
         stop-color="#97ddd5"
         stop-opacity="1"
         id="stop1"
         style="stop-color:#bababa;stop-opacity:1;" /><stop
         offset="1"
         stop-color="#1fbdaa"
         stop-opacity="0.4"
         id="stop2"
         style="stop-color:#6e6e6e;stop-opacity:0.40000001;" /></linearGradient><linearGradient
       id="linearGradient4"
       x1="-20"
       y1="-20"
       x2="20"
       y2="20"
       gradientUnits="userSpaceOnUse"><stop
         offset="0"
         stop-color="#97ddd5"
         stop-opacity="1"
         id="stop3-1"
         style="stop-color:#bababa;stop-opacity:1;" /><stop
         offset="1"
         stop-color="#1fbdaa"
         stop-opacity="0.4"
         id="stop4-4"
         style="stop-color:#6e6e6e;stop-opacity:0.40000001;" /></linearGradient><linearGradient
       inkscape:collect="always"
       xlink:href="#bg-ad7a3fe19d73"
       id="linearGradient130"
       gradientUnits="userSpaceOnUse"
       x1="-20"
       y1="-20"
       x2="20"
       y2="20" /><linearGradient
       inkscape:collect="always"
       xlink:href="#linearGradient9"
       id="linearGradient131"
       gradientUnits="userSpaceOnUse"
       x1="-20"
       y1="-20"
       x2="20"
       y2="20" /><linearGradient
       inkscape:collect="always"
       xlink:href="#linearGradient7"
       id="linearGradient132"
       gradientUnits="userSpaceOnUse"
       x1="-20"
       y1="-20"
       x2="20"
       y2="20" /><linearGradient
       inkscape:collect="always"
       xlink:href="#linearGradient4"
       id="linearGradient133"
       gradientUnits="userSpaceOnUse"
       x1="-20"
       y1="-20"
       x2="20"
       y2="20" /></defs><g
     inkscape:label="Layer 1"
     inkscape:groupmode="layer"
     id="layer1"
     transform="translate(-31.44885,-74.972527)"><g
       id="g130"
       transform="matrix(0.53735215,0,0,0.53735215,-8.1534957,-2.3177798)"
       inkscape:label="logo"
       style="display:inline"
       inkscape:export-filename="X:\casamiro.ai\app\public\logo.casamiro.svg"
       inkscape:export-xdpi="300"
       inkscape:export-ydpi="300"><g
         id="g127"
         transform="matrix(0.98366526,0,0,0.98366526,73.699059,143.83548)"
         style="font-weight:500;font-size:15.4473px;line-height:1.25;font-family:'LEMON MILK';-inkscape-font-specification:'LEMON MILK, Medium';display:inline;fill:#00a4db;stroke-width:0.37326"
         inkscape:label="cubo"
         inkscape:export-filename="X:\casamiro.ai\app\public\logo.casamiro.svg"
         inkscape:export-xdpi="300"
         inkscape:export-ydpi="300"><g
           transform="rotate(-90,50,-10)"
           id="g88"
           style="display:none;fill:#ffffff"><polygon
             points="-20,20 20,20 0,-20 "
             fill="#bd1faa"
             id="polygon88"
             style="fill:#ffffff" /></g><g
           transform="rotate(90,-10,30)"
           id="g89"
           style="display:none;fill:#000000"><polygon
             points="20,20 0,-20 -20,20 "
             fill="#97ddd5"
             id="polygon89"
             style="fill:#000000" /></g><g
           transform="translate(0,40)"
           id="g100"
           style="display:inline"
           inkscape:label="bottom"><g
             transform="rotate(-90,20,-10)"
             id="g90"
             style="fill:#000000"><polygon
               points="10,10 0,-10 -10,10 "
               fill="rgba(55, 241, 4, 0.64)"
               id="polygon90"
               style="fill:#000000" /></g><g
             transform="rotate(90,20,30)"
             id="g91"
             style="fill:#000000"><polygon
               points="10,10 0,-10 -10,10 "
               fill="rgba(55, 241, 4, 0.64)"
               id="polygon91"
               style="fill:#000000" /></g><g
             transform="rotate(-90,15,5)"
             id="g92"
             style="fill:#bfbfbf;fill-opacity:1"><polygon
               points="10,10 0,-10 -10,10 "
               fill="rgba(220, 83, 46, 0.61)"
               id="polygon92"
               style="fill:#bfbfbf;fill-opacity:1" /></g><g
             transform="rotate(90,5,25)"
             id="g93"
             style="fill:#808080;fill-opacity:1"><polygon
               points="10,10 0,-10 -10,10 "
               fill="rgba(220, 83, 46, 0.61)"
               id="polygon93"
               style="fill:#808080;fill-opacity:1" /></g><g
             transform="rotate(-90,25,-5)"
             id="g94"
             style="fill:#ffffff"><polygon
               points="10,10 0,-10 -10,10 "
               fill="rgba(217, 18, 31, 1.00)"
               id="polygon94"
               style="fill:#ffffff" /></g><g
             transform="rotate(90,15,35)"
             id="g95"
             style="fill:#808080;fill-opacity:1"><polygon
               points="10,10 0,-10 -10,10 "
               fill="rgba(217, 18, 31, 1.00)"
               id="polygon95"
               style="fill:#808080;fill-opacity:1" /></g><g
             transform="rotate(-90,35,-15)"
             id="g96"
             style="fill:#bfbfbf;fill-opacity:1"><polygon
               points="10,10 0,-10 -10,10 "
               fill="rgba(64, 241, 55, 0.69)"
               id="polygon96"
               style="fill:#bfbfbf;fill-opacity:1" /></g><g
             transform="rotate(90,25,45)"
             id="g97"
             style="fill:#808080;fill-opacity:1"><polygon
               points="10,10 0,-10 -10,10 "
               fill="rgba(64, 241, 55, 0.69)"
               id="polygon97"
               style="fill:#808080;fill-opacity:1" /></g><g
             transform="rotate(-90,30,0)"
             id="g98"
             style="fill:#bfbfbf;fill-opacity:1"><polygon
               points="10,10 0,-10 -10,10 "
               fill="rgba(57, 223, 7, 0.86)"
               id="polygon98"
               style="fill:#bfbfbf;fill-opacity:1" /></g><g
             transform="rotate(90,10,40)"
             id="g99"
             style="fill:#ffffff"><polygon
               points="10,10 0,-10 -10,10 "
               fill="rgba(57, 223, 7, 0.86)"
               id="polygon99"
               style="fill:#ffffff" /></g></g><g
           transform="translate(0,20)"
           id="g111"
           style="display:inline"
           inkscape:label="middle"><g
             transform="rotate(-90,20,-10)"
             id="g101"
             style="fill:#808080;fill-opacity:1"><polygon
               points="0,-10 -10,10 10,10 "
               fill="rgba(157, 18, 217, 1.00)"
               id="polygon100"
               style="fill:#808080;fill-opacity:1" /></g><g
             transform="rotate(90,20,30)"
             id="g102"
             style="fill:#000000"><polygon
               points="0,-10 -10,10 10,10 "
               fill="rgba(157, 18, 217, 1.00)"
               id="polygon101"
               style="fill:#000000" /></g><g
             transform="rotate(-90,15,5)"
             id="g103"
             style="fill:#bfbfbf;fill-opacity:1"><polygon
               points="0,-10 -10,10 10,10 "
               fill="rgba(30, 118, 200, 0.67)"
               id="polygon102"
               style="fill:#bfbfbf;fill-opacity:1" /></g><g
             transform="rotate(90,5,25)"
             id="g104"
             style="fill:#000000"><polygon
               points="0,-10 -10,10 10,10 "
               fill="rgba(30, 118, 200, 0.67)"
               id="polygon103"
               style="fill:#000000" /></g><g
             transform="rotate(-90,25,-5)"
             id="g105"
             style="fill:#bfbfbf;fill-opacity:1"><polygon
               points="0,-10 -10,10 10,10 "
               fill="rgba(7, 247, 2, 0.65)"
               id="polygon104"
               style="fill:#bfbfbf;fill-opacity:1" /></g><g
             transform="rotate(90,15,35)"
             id="g106"
             style="fill:#ffffff"><polygon
               points="0,-10 -10,10 10,10 "
               fill="rgba(7, 247, 2, 0.65)"
               id="polygon105"
               style="fill:#ffffff" /></g><g
             transform="rotate(-90,35,-15)"
             id="g107"
             style="fill:#bfbfbf;fill-opacity:1"><polygon
               points="0,-10 -10,10 10,10 "
               fill="rgba(70, 216, 99, 0.64)"
               id="polygon106"
               style="fill:#bfbfbf;fill-opacity:1" /></g><g
             transform="rotate(90,25,45)"
             id="g108"
             style="fill:#000000"><polygon
               points="0,-10 -10,10 10,10 "
               fill="rgba(70, 216, 99, 0.64)"
               id="polygon107"
               style="fill:#000000" /></g><g
             transform="rotate(-90,30,0)"
             id="g109"
             style="opacity:0.75;fill:#808080;fill-opacity:1"><polygon
               points="0,-10 -10,10 10,10 "
               fill="rgba(173, 210, 40, 0.67)"
               id="polygon108"
               style="fill:#808080;fill-opacity:1" /></g><g
             transform="rotate(90,10,40)"
             id="g110"
             style="opacity:0.75;fill:#000000"><polygon
               points="0,-10 -10,10 10,10 "
               fill="rgba(173, 210, 40, 0.67)"
               id="polygon109"
               style="fill:#000000" /></g></g><g
           id="g122"
           style="display:inline"
           inkscape:label="Top"><g
             transform="rotate(-90,20,-10)"
             id="g112"
             style="fill:#000000"><polygon
               points="10,10 0,-10 -10,10 "
               fill="rgba(223, 7, 158, 0.86)"
               id="polygon111"
               style="fill:#000000" /></g><g
             transform="rotate(90,20,30)"
             id="g113"
             style="fill:#808080;fill-opacity:1"><polygon
               points="10,10 0,-10 -10,10 "
               fill="rgba(223, 7, 158, 0.86)"
               id="polygon112"
               style="fill:#808080;fill-opacity:1" /></g><g
             transform="rotate(-90,15,5)"
             id="g114"
             style="fill:#000000"><polygon
               points="10,10 0,-10 -10,10 "
               fill="rgba(241, 55, 226, 0.69)"
               id="polygon113"
               style="fill:#000000" /></g><g
             transform="rotate(90,5,25)"
             id="g115"
             style="fill:#808080;fill-opacity:1"><polygon
               points="10,10 0,-10 -10,10 "
               fill="rgba(241, 55, 226, 0.69)"
               id="polygon114"
               style="fill:#808080;fill-opacity:1" /></g><g
             transform="rotate(-90,25,-5)"
             id="g116"
             style="fill:#ffffff"><polygon
               points="10,10 0,-10 -10,10 "
               fill="rgba(210, 40, 43, 0.67)"
               id="polygon115"
               style="fill:#ffffff" /></g><g
             transform="rotate(90,15,35)"
             id="g117"
             style="fill:#bfbfbf;fill-opacity:1"><polygon
               points="10,10 0,-10 -10,10 "
               fill="rgba(210, 40, 43, 0.67)"
               id="polygon116"
               style="fill:#bfbfbf;fill-opacity:1" /></g><g
             transform="rotate(-90,35,-15)"
             id="g118"
             style="fill:#ffffff"><polygon
               points="10,10 0,-10 -10,10 "
               fill="rgba(211, 140, 18, 0.67)"
               id="polygon117"
               style="fill:#ffffff" /></g><g
             transform="rotate(90,25,45)"
             id="g119"
             style="fill:#000000"><polygon
               points="10,10 0,-10 -10,10 "
               fill="rgba(211, 140, 18, 0.67)"
               id="polygon118"
               style="fill:#000000" /></g><g
             transform="rotate(-90,30,0)"
             id="g120"
             style="display:inline;opacity:0.749723;fill:#000000"><polygon
               points="-10,10 10,10 0,-10 "
               fill="rgba(244, 166, 21, 0.85)"
               id="polygon119"
               style="fill:#000000" /></g><g
             transform="rotate(90,10,40)"
             id="g121"
             style="display:inline;opacity:0.843854;fill:#808080;fill-opacity:1"><polygon
               points="10,10 0,-10 -10,10 "
               fill="rgba(244, 166, 21, 0.85)"
               id="polygon120"
               style="fill:#808080;fill-opacity:1" /></g></g><g
           transform="rotate(90,-10,30)"
           id="g123"
           style="display:inline"><polygon
             points="0,-20 -20,20 20,20 "
             fill="url(#bg-ad7a3fe19d73)"
             id="polygon122"
             style="display:inline;fill:url(#linearGradient130)" /></g><g
           transform="rotate(-90,40,20)"
           id="g124"
           style="display:inline"><polygon
             points="-20,20 20,20 0,-20 "
             fill="url(#bg-ad7a3fe19d73)"
             id="polygon123"
             style="fill:url(#linearGradient131)" /></g><g
           transform="rotate(90,0,60)"
           id="g125"
           style="display:inline"><polygon
             points="-20,20 20,20 0,-20 "
             fill="url(#bg-ad7a3fe19d73b)"
             id="polygon124"
             style="fill:url(#linearGradient132)" /></g><g
           transform="rotate(-90,50,-10)"
           id="g126"
           style="display:inline"><polygon
             points="0,-20 -20,20 20,20 "
             fill="url(#bg-ad7a3fe19d73b)"
             id="polygon125"
             style="fill:url(#linearGradient133)" /></g></g><g
         id="g129"
         style="font-weight:500;font-size:15.4473px;line-height:1.25;font-family:'LEMON MILK';-inkscape-font-specification:'LEMON MILK, Medium';display:inline;fill:#808080;fill-opacity:0.5;stroke-width:0.37326"
         aria-label="casamiro.ai"
         transform="matrix(1.2597704,0,0,1.2597704,95.824359,-112.65321)"
         inkscape:label="casamiro.ia"><path
           d="m 56.151982,240.84309 c 1.840401,0 3.145276,-0.79952 4.216329,-1.86303 l -1.402929,-1.97617 c -0.807061,0.79198 -1.772517,1.38785 -2.888826,1.38785 -1.878114,0 -3.809027,-1.67447 -3.809027,-3.8392 0,-2.12702 1.863029,-3.86183 3.81657,-3.86183 1.048425,0 2.044052,0.49782 2.873741,1.31242 l 1.410471,-1.92337 c -1.274704,-1.22945 -2.677633,-1.85549 -4.261584,-1.87811 -3.424353,0 -6.313179,2.90391 -6.313179,6.3358 0,3.41681 2.851113,6.30564 6.358434,6.30564 z m 13.742667,-0.23382 h 2.647462 l -5.815365,-12.46042 h -0.07543 l -5.807822,12.46042 h 2.639919 l 0.776891,-1.69709 h 4.864994 z m -4.683971,-3.77886 1.485897,-3.25087 1.478355,3.25087 z m 11.811754,4.02022 c 2.602207,0 4.412437,-1.41047 4.412437,-3.628 0,-1.87057 -1.267161,-2.89637 -3.281043,-3.84674 -1.395386,-0.65621 -2.315586,-0.90512 -2.315586,-1.62921 0,-0.62604 0.678836,-1.15402 1.591494,-1.15402 0.678837,0 1.380301,0.29416 1.742347,1.01825 l 1.802688,-1.25961 c -0.550612,-1.47082 -1.92337,-2.1572 -3.582748,-2.1572 -2.232618,0 -4.012678,1.38785 -4.012678,3.49224 0,1.93846 1.500983,2.68518 2.866199,3.36401 1.274704,0.63358 2.730431,1.33505 2.730431,2.22508 0,0.64866 -0.769348,1.11631 -1.915828,1.11631 -1.048425,0 -1.825315,-0.39222 -2.360842,-1.25208 l -1.95354,1.37276 c 0.814604,1.50852 2.285416,2.33821 4.276669,2.33821 z m 13.440961,-0.24136 h 2.647462 l -5.815366,-12.46042 h -0.07543 l -5.807823,12.46042 h 2.63992 l 0.77689,-1.69709 h 4.864995 z m -4.683972,-3.77886 1.485898,-3.25087 1.478355,3.25087 z m 20.319839,-8.68156 -5.81537,8.0329 -5.822906,-8.0329 h -0.135767 v 12.46042 h 2.443811 v -5.29493 l 3.507322,5.09128 h 0.0151 l 3.49978,-5.09128 v 5.29493 h 2.44381 v -12.46042 z m 2.2477,12.46042 h 2.44381 v -12.15872 h -2.44381 z m 13.86335,0 -3.45452,-4.83483 c 1.30487,-0.4601 2.2477,-1.82531 2.2477,-3.38664 0,-2.18736 -1.86303,-3.93725 -4.13336,-3.93725 h -3.96742 l 0.008,12.15872 h 2.44381 v -5.74748 l 3.86937,5.74748 z m -6.86379,-9.73753 h 1.56887 c 0.82214,0 1.56886,0.66375 1.56886,1.53115 0,0.8674 -0.73918,1.5387 -1.56886,1.53115 l -1.56887,-0.008 z m 13.81055,9.97135 c 3.48469,0 6.3358,-2.83603 6.3358,-6.29809 0,-3.49224 -2.85111,-6.34335 -6.32826,-6.34335 -3.47715,0 -6.32072,2.85111 -6.32072,6.34335 0,3.46206 2.84357,6.29809 6.31318,6.29809 z m 0,-2.47398 c -2.11948,0 -3.84674,-1.72726 -3.84674,-3.8392 0,-2.12702 1.72726,-3.86182 3.84674,-3.86182 2.12702,0 3.86182,1.7348 3.86182,3.86182 0,2.11194 -1.7348,3.8392 -3.86182,3.8392 z"
           id="path127"
           style="fill:#808080;fill-opacity:0.5" /><path
           style="fill:#ff6600;fill-opacity:1"
           d="m 137.84499,240.99394 c 0.85232,0 1.56132,-0.70146 1.56132,-1.55378 0,-0.84477 -0.71655,-1.56132 -1.56132,-1.56132 -0.85232,0 -1.56133,0.709 -1.56133,1.56132 0,0.85986 0.70147,1.55378 1.56133,1.55378 z"
           id="path128"
           sodipodi:nodetypes="sssss" /><path
           style="fill:#808080;fill-opacity:0.5"
           d="m 149.937,240.60927 h 2.64746 l -5.81536,-12.46042 h -0.0754 l -5.80782,12.46042 h 2.63992 l 0.77689,-1.69709 h 4.86499 z m -4.68397,-3.77886 1.4859,-3.25087 1.47835,3.25087 z m 8.5458,3.77886 h 2.44382 v -12.15872 h -2.44382 z"
           id="path129" /></g></g></g></svg>
